<?xml version="1.0" encoding="UTF-8"?><svg width="479px" height="118px" viewBox="0 0 479 118" version="1.1" xmlns="http://www.w3.org/2000/svg" xmlns:xlink="http://www.w3.org/1999/xlink">        <title>balkanruby-logo white</title>    <desc>Created with Sketch.</desc>    <g id="balkanruby-logo-white" stroke="none" stroke-width="1" fill="none" fill-rule="evenodd">        <g id="balkanruby-logo_corrected" transform="translate(0.000000, 1.000000)">            <path d="M121.7,80 L121.7,34.5 L138,34.5 C143.9,34.5 148.3,35.6 151.4,37.7 C154.5,39.8 156,43 156,47 C156,49.4 155.5,51.4 154.4,53 C153.3,54.6 151.7,55.9 149.6,56.7 C152,57.3 153.8,58.5 155.1,60.2 C156.4,61.9 157,64 157,66.5 C157,71 155.6,74.3 152.8,76.5 C150,78.7 145.8,79.9 140.3,79.9 L121.7,79.9 L121.7,80 Z M132.6,60.7 L132.6,71.6 L139.8,71.6 C141.8,71.6 143.3,71.1 144.4,70.2 C145.5,69.3 146,68 146,66.4 C146,62.6 144.1,60.7 140.3,60.7 L132.6,60.7 Z M132.6,53.5 L138.3,53.5 C140.7,53.5 142.4,53 143.4,52.2 C144.4,51.4 144.9,50.1 144.9,48.4 C144.9,46.5 144.3,45.1 143.2,44.3 C142.1,43.5 140.5,43 138,43 L132.6,43 L132.6,53.5 Z M181.5,80 C181.1,79.3 180.8,78.3 180.5,77 C178.6,79.4 175.9,80.7 172.4,80.7 C169.2,80.7 166.5,79.7 164.3,77.8 C162.1,75.9 161,73.5 161,70.5 C161,66.8 162.4,64.1 165.1,62.2 C167.8,60.3 171.7,59.4 176.9,59.4 L180.2,59.4 L180.2,57.6 C180.2,54.5 178.9,52.9 176.2,52.9 C173.7,52.9 172.4,54.1 172.4,56.6 L161.9,56.6 C161.9,53.3 163.3,50.7 166.1,48.6 C168.9,46.5 172.4,45.5 176.7,45.5 C181,45.5 184.4,46.6 186.9,48.7 C189.4,50.8 190.7,53.7 190.7,57.4 L190.7,72.4 C190.7,75.5 191.2,77.9 192.1,79.5 L192.1,80 L181.5,80 Z M174.9,73.1 C176.2,73.1 177.3,72.8 178.2,72.3 C179.1,71.8 179.7,71.1 180.1,70.4 L180.1,65 L177,65 C173.3,65 171.5,66.6 171.5,69.9 C171.5,70.9 171.8,71.6 172.5,72.2 C173.2,72.8 173.9,73.1 174.9,73.1 Z M207.5,80 L197,80 L197,32 L207.6,32 L207.6,80 L207.5,80 Z M227.6,67.4 L224.6,70.4 L224.6,80 L214.1,80 L214.1,32 L224.6,32 L224.6,57.5 L225.7,56.1 L233.6,46.2 L246.2,46.2 L234.4,60.1 L247,80 L235,80 L227.6,67.4 Z M268.1,80 C267.7,79.3 267.4,78.3 267.1,77 C265.2,79.4 262.5,80.7 259,80.7 C255.8,80.7 253.1,79.7 250.9,77.8 C248.7,75.9 247.6,73.5 247.6,70.5 C247.6,66.8 249,64.1 251.7,62.2 C254.4,60.3 258.3,59.4 263.5,59.4 L266.8,59.4 L266.8,57.6 C266.8,54.5 265.5,52.9 262.8,52.9 C260.3,52.9 259,54.1 259,56.6 L248.5,56.6 C248.5,53.3 249.9,50.7 252.7,48.6 C255.5,46.6 259,45.5 263.3,45.5 C267.6,45.5 271,46.6 273.5,48.7 C276,50.8 277.3,53.7 277.3,57.4 L277.3,72.4 C277.3,75.5 277.8,77.9 278.7,79.5 L278.7,80 L268.1,80 Z M261.5,73.1 C262.8,73.1 263.9,72.8 264.8,72.3 C265.7,71.8 266.3,71.1 266.7,70.4 L266.7,65 L263.6,65 C259.9,65 258.1,66.6 258.1,69.9 C258.1,70.9 258.4,71.6 259.1,72.2 C259.8,72.8 260.5,73.1 261.5,73.1 Z M292.7,46.2 L293,50.2 C295.3,47.1 298.6,45.6 302.7,45.6 C306.2,45.6 308.9,46.7 310.6,48.8 C312.3,50.9 313.2,54.1 313.3,58.3 L313.3,80 L302.7,80 L302.7,58.7 C302.7,57 302.4,55.7 301.7,54.9 C301,54.1 299.8,53.7 297.9,53.7 C295.8,53.7 294.3,54.5 293.3,56.1 L293.3,80 L282.8,80 L282.8,46.2 L292.7,46.2 Z M352.4,63.9 L346.5,63.9 L346.5,80 L335.5,80 L335.5,34.5 L353.4,34.5 C358.8,34.5 363,35.7 366.1,38.1 C369.2,40.5 370.7,43.9 370.7,48.3 C370.7,51.5 370.1,54.1 368.8,56.2 C367.5,58.3 365.5,60 362.8,61.3 L372.3,79.6 L372.3,80 L360.5,80 L352.4,63.9 Z M346.5,55.5 L353.4,55.5 C355.5,55.5 357.1,55 358.1,53.9 C359.1,52.8 359.7,51.3 359.7,49.3 C359.7,47.3 359.2,45.8 358.1,44.7 C357,43.6 355.5,43 353.4,43 L346.5,43 L346.5,55.5 Z M396.9,76.3 C394.7,79.2 391.7,80.6 387.9,80.6 C384.2,80.6 381.4,79.5 379.5,77.4 C377.6,75.3 376.6,72.1 376.6,68.1 L376.6,46.2 L387.1,46.2 L387.1,68.2 C387.1,71.1 388.5,72.5 391.3,72.5 C393.7,72.5 395.4,71.6 396.5,69.9 L396.5,46.2 L407.1,46.2 L407.1,80 L397.2,80 L396.9,76.3 Z M444.3,63.4 C444.3,68.9 443.2,73.2 440.9,76.2 C438.6,79.2 435.4,80.7 431.2,80.7 C427.8,80.7 425,79.3 422.9,76.6 L422.5,80.1 L413,80.1 L413,32 L423.5,32 L423.5,48.9 C425.5,46.7 428,45.6 431.1,45.6 C435.3,45.6 438.6,47.1 440.9,50.1 C443.2,53.1 444.3,57.4 444.3,62.9 L444.3,63.4 Z M433.7,62.7 C433.7,59.4 433.3,57.1 432.4,55.7 C431.5,54.3 430.2,53.6 428.4,53.6 C426,53.6 424.4,54.5 423.5,56.3 L423.5,69.7 C424.4,71.5 426.1,72.4 428.5,72.4 C431,72.4 432.6,71.2 433.2,68.8 C433.5,67.7 433.7,65.7 433.7,62.7 Z M462.1,65.3 L467.7,46.2 L479,46.2 L465.2,85.7 L464.6,87.1 C462.6,91.5 459.2,93.7 454.2,93.7 C452.8,93.7 451.4,93.5 449.9,93.1 L449.9,85.6 L451.3,85.6 C452.8,85.6 453.9,85.4 454.7,85 C455.5,84.6 456.1,83.8 456.4,82.7 L457.2,80.4 L445.4,46.3 L456.7,46.3 L462.1,65.3 Z" id="Balkan-Ruby" fill="#FFFFFF" fill-rule="nonzero"></path>            <g id="Group" stroke="#FFFFFF" stroke-width="2">                <path d="M50.2,116 L91,55.1" id="Shape_31_"></path>                <path d="M50.2,116 L10.2,55.1" id="Shape_30_"></path>                <path d="M10.2,55.1 L75.5,78.3" id="Shape_29_"></path>                <path d="M91,55.1 L98.2,39.1" id="Shape_28_"></path>                <path d="M98.2,39.1 L74.2,28.9" id="Shape_27_"></path>                <path d="M91,55.1 L93.7,78.3" id="Shape_26_"></path>                <path d="M74.3,28.9 L92.4,20.4" id="Shape_25_"></path>                <path d="M10.2,27.3 L32.4,14.4" id="Shape_24_"></path>                <path d="M10.2,71 L10.2,27.3" id="Shape_22_"></path>                <path d="M10.2,55.1 L0.9,37.6" id="Shape_19_"></path>                <path d="M32.4,14.4 L74.3,28.9" id="Shape_17_"></path>                <path d="M32.4,14.4 L32.4,3.9" id="Shape_15_"></path>                <path d="M74.3,0.2 L74.3,28.9" id="Shape_13_"></path>                <path d="M91,55.1 L55,71.1" id="Shape_9_"></path>                <path d="M55,71 L50.2,115.9" id="Shape_6_"></path>                <polygon id="Shape_1_" points="10.2 27.3 0.9 37.6 10.1 71 50.1 115.9 93.6 78.2 98.1 39 92.2 20.3 74.3 0.2 32.4 3.9"></polygon>            </g>        </g>    </g></svg>